<?xml version="1.0" encoding="UTF-8"?><svg xmlns="http://www.w3.org/2000/svg" viewBox="0 0 177.8 309.3"><defs><style>.d{fill:#fff;}.e{fill:#333334;}.e,.f,.g{stroke-miterlimit:10;}.e,.g{stroke:#fff;}.f{stroke:#000;}.g{fill:#2e2e2f;}</style></defs><g id="a"/><g id="b"><g id="c"><path class="f" d="M163.8,308.8H13.6c-6.6,0-12-5.4-12-12V12.5C1.6,5.9,7,.5,13.6,.5H163.8c6.6,0,12,5.4,12,12V296.8c0,6.6-5.4,12-12,12Z"/><rect class="d" x="17.8" y="35.5" width="141.7" height="235.2"/><circle class="g" cx="88.7" cy="289.1" r="12.2"/><path class="e" d="M105.2,18.4h-33.1c-.9,0-1.7-.8-1.7-1.7h0c0-.9,.8-1.7,1.7-1.7h33.1c.9,0,1.7,.8,1.7,1.7h0c0,.9-.8,1.7-1.7,1.7Z"/><circle class="g" cx="53" cy="16.7" r="2.7" transform="translate(28.03 66.34) rotate(-80.78)"/><path d="M176.2,68.9h0c-.9,0-1.6-.7-1.6-1.6v-20.3c0-.9,.7-1.6,1.6-1.6h0c.9,0,1.6,.7,1.6,1.6v20.3c0,.9-.7,1.6-1.6,1.6Z"/><path d="M1.6,68.9h0c-.9,0-1.6-.7-1.6-1.6v-16.3c0-.9,.7-1.6,1.6-1.6h0c.9,0,1.6,.7,1.6,1.6v16.3c0,.9-.7,1.6-1.6,1.6Z"/><path d="M1.6,87.9h0c-.9,0-1.6-.7-1.6-1.6v-16.3c0-.9,.7-1.6,1.6-1.6h0c.9,0,1.6,.7,1.6,1.6v16.3c0,.9-.7,1.6-1.6,1.6Z"/></g></g></svg>