<?xml version="1.0" encoding="UTF-8"?><svg xmlns="http://www.w3.org/2000/svg" viewBox="0 0 205.09 204.55"><defs><style>.d,.e{fill:#fff;}.f{stroke-miterlimit:10;stroke-width:1px;}.f,.g,.e{stroke:#000;}.g,.e{stroke-miterlimit:10;}</style></defs><g id="a"/><g id="b"><g id="c"><rect class="f" x=".5" y="100.01" width="187.3" height="20.3" transform="translate(-50.32 98.84) rotate(-45)"/><circle class="g" cx="20.2" cy="183.97" r="18.4" transform="translate(-164.63 174.44) rotate(-80.78)"/><circle class="e" cx="20.2" cy="183.97" r="10.3"/><circle class="g" cx="172.5" cy="31.77" r="24"/><rect class="d" x="167.83" y="8.11" width="33.3" height="25" transform="translate(39.46 136.48) rotate(-45)"/><path class="d" d="M181.4,41.27c-4.6-1.3-9.3-2.6-13.9-4-1.2-4.6-2.4-9.3-3.5-13.9h17.5v17.9h-.1Z"/><path d="M185.8,200.97h0c-4.7,4.7-12.2,4.8-16.7,.2l-57.1-57c-4.5-4.5-4.4-12.1,.2-16.7h0c4.7-4.7,12.2-4.8,16.7-.2l6,6,51.1,51.1c4.6,4.5,4.5,12-.2,16.6Z"/><circle class="d" cx="141.1" cy="131.67" r="7.9"/><circle class="d" cx="116.5" cy="156.37" r="7.9"/><rect x="111.67" y="117.28" width="4.1" height="25" transform="translate(-58.46 118.42) rotate(-45)"/><rect x="43.89" y="4.39" width="4.1" height="109.5" transform="translate(-28.36 49.81) rotate(-45)"/><path d="M15.8,24.37l-4.6,4.6C7.5,24.77,3.7,20.47,0,16.27c1.1-1,2.1-2,3.2-3,4.2,3.7,8.4,7.4,12.6,11.1Z"/><rect x="14.2" y="24.37" width="1.6" height="1.8"/><rect x="11.21" y="27.41" width="1.8" height="1.6"/></g></g></svg>